<svg width="24" height="25" viewBox="0 0 24 25" fill="none" xmlns="http://www.w3.org/2000/svg">
    <path d="M4 17.5H12.1C12.5 19.2 14.1 20.5 16 20.5C17.9 20.5 19.4 19.2 19.9 17.5H20C20.6 17.5 21 17.1 21 16.5C21 15.9 20.6 15.5 20 15.5H19.9C19.5 13.8 17.9 12.5 16 12.5C14.1 12.5 12.6 13.8 12.1 15.5H4C3.4 15.5 3 15.9 3 16.5C3 17.1 3.4 17.5 4 17.5ZM16 14.5C17.1 14.5 18 15.4 18 16.5C18 17.6 17.1 18.5 16 18.5C14.9 18.5 14 17.6 14 16.5C14 15.4 14.9 14.5 16 14.5Z" fill="#CCF2C2"/>
    <path d="M4 9.5H4.1C4.5 11.2 6.1 12.5 8 12.5C9.9 12.5 11.4 11.2 11.9 9.5H20C20.6 9.5 21 9.1 21 8.5C21 7.9 20.6 7.5 20 7.5H11.9C11.5 5.8 9.9 4.5 8 4.5C6.1 4.5 4.6 5.8 4.1 7.5H4C3.4 7.5 3 7.9 3 8.5C3 9.1 3.4 9.5 4 9.5ZM8 6.5C9.1 6.5 10 7.4 10 8.5C10 9.6 9.1 10.5 8 10.5C6.9 10.5 6 9.6 6 8.5C6 7.4 6.9 6.5 8 6.5Z" fill="#CCF2C2"/>
</svg>
