<svg width="28" height="28" viewBox="0 0 28 28" fill="none" xmlns="http://www.w3.org/2000/svg">
    <path d="M25.7687 11.6667H16.3333V2.23125C16.3333 0.998958 15.2906 0 14 0C12.7094 0 11.6667 0.998958 11.6667 2.23125V11.6667H2.23125C0.998958 11.6667 0 12.7094 0 14C0 15.2906 0.998958 16.3333 2.23125 16.3333H11.6667V25.7687C11.6667 27.001 12.7094 28 14 28C15.2906 28 16.3333 27.001 16.3333 25.7687V16.3333H25.7687C27.001 16.3333 28 15.2906 28 14C28 12.7094 27.001 11.6667 25.7687 11.6667Z" fill="#072326"/>
</svg>
