<svg width="46" height="46" viewBox="0 0 46 46" fill="none" xmlns="http://www.w3.org/2000/svg">
    <path d="M23 45C35.1503 45 45 35.1503 45 23C45 10.8497 35.1503 1 23 1C10.8497 1 1 10.8497 1 23C1 35.1503 10.8497 45 23 45Z" stroke="#F5F5F5" stroke-width="2" stroke-miterlimit="10" stroke-linejoin="round"/>
    <path d="M37.6668 39.1315C37.6668 31.0311 31.1006 24.4648 23.0002 24.4648C14.8998 24.4648 8.3335 31.0311 8.3335 39.1315" stroke="#F5F5F5" stroke-width="2" stroke-miterlimit="10" stroke-linejoin="round"/>
    <path d="M23.0002 24.4672C27.8603 24.4672 31.8002 20.5273 31.8002 15.6672C31.8002 10.8071 27.8603 6.86719 23.0002 6.86719C18.1401 6.86719 14.2002 10.8071 14.2002 15.6672C14.2002 20.5273 18.1401 24.4672 23.0002 24.4672Z" stroke="#F5F5F5" stroke-width="2" stroke-miterlimit="10" stroke-linejoin="round"/>
</svg>
